<?xml version="1.0" standalone="no"?>
<!DOCTYPE svg PUBLIC "-//W3C//DTD SVG 20010904//EN"
 "http://www.w3.org/TR/2001/REC-SVG-20010904/DTD/svg10.dtd">
<svg version="1.0" xmlns="http://www.w3.org/2000/svg"
 width="225.000000pt" height="225.000000pt" viewBox="0 0 225.000000 225.000000"
 preserveAspectRatio="xMidYMid meet">

<g transform="translate(0.000000,225.000000) scale(0.100000,-0.100000)"
fill="#000000" stroke="none">
<path d="M953 2105 c-301 -54 -559 -241 -703 -508 -105 -195 -143 -423 -105
-638 68 -392 347 -692 743 -801 111 -31 363 -31 474 0 187 51 333 135 464 266
131 131 215 277 266 464 31 111 31 363 0 474 -93 339 -329 596 -647 705 -150
51 -340 66 -492 38z m381 -117 c176 -40 351 -151 479 -303 64 -76 146 -232
172 -330 22 -81 31 -293 16 -380 -64 -365 -355 -659 -719 -725 -89 -16 -246
-13 -338 5 -327 68 -596 326 -680 653 -35 137 -35 298 0 434 92 361 410 634
776 668 99 9 186 2 294 -22z"/>
<path d="M1280 1860 c-15 -15 -18 -25 -11 -38 7 -14 -4 -39 -47 -110 -54 -88
-59 -92 -92 -92 -33 0 -39 6 -89 83 -43 64 -55 91 -55 122 -1 37 -4 40 -30 43
-28 4 -46 -10 -46 -35 0 -18 31 -45 45 -39 8 3 37 -32 75 -88 49 -75 60 -99
55 -119 -5 -19 -1 -30 14 -44 19 -16 21 -28 21 -155 0 -158 -12 -177 -50 -83
-13 31 -24 54 -27 52 -2 -2 6 -25 17 -51 45 -105 19 -101 -98 17 -73 73 -92
98 -92 121 0 17 -9 37 -23 50 l-23 22 -24 -28 c-13 -15 -33 -29 -45 -29 -17
-1 -17 -2 -2 -6 10 -3 28 -15 41 -28 14 -14 31 -22 42 -19 14 3 46 -23 118
-95 87 -87 111 -126 73 -117 -7 1 -9 1 -4 -1 4 -3 7 -11 7 -18 0 -11 -29 -15
-131 -17 -121 -3 -134 -1 -161 18 -17 13 -38 19 -51 17 -37 -7 -205 104 -209
137 -2 18 -10 26 -29 28 -31 4 -53 -20 -44 -46 7 -23 35 -33 56 -21 10 5 45
-12 107 -52 85 -55 92 -61 92 -92 0 -29 -8 -37 -88 -89 -72 -46 -93 -55 -119
-51 -38 6 -61 -23 -43 -57 18 -33 70 -22 70 15 0 33 173 146 212 138 19 -4 31
1 44 16 17 19 29 21 156 21 111 0 138 -3 138 -14 0 -7 -14 -19 -30 -26 -17 -7
-29 -15 -27 -17 3 -2 16 2 31 8 21 10 29 10 38 1 10 -10 -9 -34 -82 -107 -78
-78 -100 -94 -126 -95 -19 0 -38 -9 -51 -23 l-20 -24 27 -25 c15 -14 30 -32
33 -39 4 -11 6 -11 6 1 1 8 10 21 21 28 12 7 20 23 20 40 0 21 21 49 99 126
95 95 120 107 107 53 l-6 -22 11 23 c7 12 18 22 26 22 10 0 13 -29 13 -138 0
-127 -2 -140 -20 -157 -15 -13 -19 -26 -15 -44 8 -38 -101 -211 -132 -211 -44
0 -53 -62 -12 -75 29 -9 51 13 47 47 -2 21 12 53 52 117 52 84 57 88 90 88 33
0 38 -5 90 -86 43 -67 54 -93 52 -118 -4 -34 23 -58 52 -47 38 14 25 74 -15
74 -28 0 -142 176 -134 207 3 15 -1 29 -15 43 -18 18 -20 33 -20 160 0 118 2
140 15 140 8 0 15 -6 16 -12 0 -7 5 -2 10 11 10 24 13 22 109 -74 78 -77 100
-106 100 -127 0 -15 8 -33 18 -40 11 -7 21 -20 25 -28 5 -13 6 -13 6 0 1 9 14
27 29 40 l28 24 -22 23 c-13 14 -33 23 -50 23 -24 0 -48 18 -124 95 -73 73
-92 97 -82 107 9 9 18 9 38 -1 15 -6 28 -10 31 -8 2 2 -10 10 -27 17 -16 7
-30 19 -30 26 0 11 27 14 138 14 128 0 139 -2 156 -21 13 -16 25 -20 45 -16
16 3 37 0 47 -7 48 -33 74 -48 74 -43 0 3 -20 18 -45 34 -40 25 -45 32 -44 63
0 33 5 38 87 90 63 40 97 55 122 55 32 0 35 3 35 29 0 17 -7 33 -18 40 -15 9
-22 7 -38 -13 -10 -12 -16 -27 -13 -32 3 -5 -36 -36 -87 -69 -65 -43 -100 -60
-120 -58 -15 1 -36 -5 -46 -15 -28 -24 -286 -30 -291 -6 -2 11 12 21 43 34 25
9 44 19 42 21 -2 3 -25 -4 -50 -15 -31 -13 -49 -16 -53 -9 -4 5 38 55 92 109
72 72 104 98 118 95 11 -3 28 5 42 19 12 12 29 25 36 28 9 4 8 6 -3 6 -17 1
-53 37 -62 61 -4 12 -6 12 -6 -2 -1 -10 -10 -22 -21 -28 -13 -7 -20 -21 -20
-41 0 -24 -17 -47 -94 -126 -67 -67 -100 -94 -111 -89 -13 5 -14 10 -5 27 7
11 9 23 7 26 -3 2 -8 -5 -12 -16 -3 -12 -13 -21 -21 -21 -11 0 -14 25 -14 138
0 127 2 140 21 158 14 13 18 25 14 42 -9 36 101 209 135 214 28 3 39 40 20 64
-17 19 -26 18 -50 -6z m-82 -656 c12 -14 22 -38 22 -55 0 -42 -48 -89 -90 -89
-41 0 -90 47 -90 87 0 83 102 120 158 57z"/>
<path d="M1087 1192 c-21 -23 -22 -66 -1 -86 36 -37 104 -7 104 46 0 51 -69
78 -103 40z"/>
<path d="M742 1788 c-38 -38 13 -95 52 -57 17 15 18 22 8 44 -12 27 -40 33
-60 13z"/>
<path d="M1462 1788 c-15 -15 -16 -45 -2 -53 6 -3 11 -18 11 -33 1 -20 3 -22
6 -7 2 11 14 25 26 30 12 6 23 18 25 28 7 37 -39 62 -66 35z"/>
<path d="M782 1685 c0 -11 4 -31 8 -45 6 -20 8 -21 8 -5 0 11 -4 31 -8 45 -6
20 -8 21 -8 5z"/>
<path d="M910 1655 c-16 -19 -5 -47 17 -43 22 4 29 43 9 51 -8 3 -20 -1 -26
-8z"/>
<path d="M1462 1650 c0 -14 2 -19 5 -12 2 6 2 18 0 25 -3 6 -5 1 -5 -13z"/>
<path d="M1307 1646 c-7 -19 18 -40 39 -32 8 3 14 14 12 23 -4 22 -43 29 -51
9z"/>
<path d="M1452 1600 c0 -14 2 -19 5 -12 2 6 2 18 0 25 -3 6 -5 1 -5 -13z"/>
<path d="M802 1595 c0 -11 4 -31 8 -45 6 -20 8 -21 8 -5 0 11 -4 31 -8 45 -6
20 -8 21 -8 5z"/>
<path d="M1296 1565 c-9 -26 -7 -32 5 -12 6 10 9 21 6 23 -2 3 -7 -2 -11 -11z"/>
<path d="M1441 1554 c0 -11 3 -14 6 -6 3 7 2 16 -1 19 -3 4 -6 -2 -5 -13z"/>
<path d="M490 1536 c-19 -23 -8 -61 18 -64 13 -2 29 2 37 8 9 7 31 10 57 6
l43 -5 -42 11 c-24 6 -43 14 -43 19 0 12 -30 39 -44 39 -8 0 -19 -7 -26 -14z"/>
<path d="M1710 1535 c-26 -32 13 -81 48 -59 34 22 22 74 -18 74 -10 0 -23 -7
-30 -15z"/>
<path d="M1630 1490 c-20 -6 -21 -8 -5 -8 11 0 31 4 45 8 20 6 21 8 5 8 -11 0
-31 -4 -45 -8z"/>
<path d="M658 1473 c6 -2 18 -2 25 0 6 3 1 5 -13 5 -14 0 -19 -2 -12 -5z"/>
<path d="M1540 1470 c-20 -6 -21 -8 -5 -8 11 0 31 4 45 8 20 6 21 8 5 8 -11 0
-31 -4 -45 -8z"/>
<path d="M708 1463 c7 -3 16 -2 19 1 4 3 -2 6 -13 5 -11 0 -14 -3 -6 -6z"/>
<path d="M996 1429 c-7 -37 12 -66 38 -56 22 9 21 56 -1 64 -10 4 -21 11 -24
16 -3 5 -9 -6 -13 -24z"/>
<path d="M1209 1424 c-9 -12 -10 -20 -2 -33 8 -13 7 -26 -3 -51 -8 -18 -12
-35 -10 -37 2 -3 10 11 17 31 7 19 21 37 31 39 24 7 33 34 18 52 -16 19 -34
19 -51 -1z"/>
<path d="M620 1364 c-11 -12 -10 -18 3 -32 13 -12 20 -13 28 -5 6 6 18 9 27 6
9 -4 6 4 -9 20 -26 31 -32 33 -49 11z"/>
<path d="M1591 1353 c-15 -16 -18 -24 -9 -20 9 3 21 0 27 -6 8 -8 15 -7 28 5
13 14 14 20 3 32 -17 22 -23 20 -49 -11z"/>
<path d="M850 1275 c-23 -27 17 -72 42 -47 7 7 24 4 56 -9 24 -11 47 -18 49
-15 2 2 -17 12 -42 22 -30 11 -50 26 -56 41 -10 26 -31 30 -49 8z"/>
<path d="M1361 1267 c-5 -14 -16 -27 -23 -31 -9 -4 -9 -5 2 -4 8 1 23 -2 33
-7 27 -11 56 19 41 43 -17 27 -43 27 -53 -1z"/>
<path d="M931 1071 c-8 -5 -30 -7 -48 -4 -28 5 -35 2 -39 -14 -3 -12 -14 -25
-25 -29 -15 -7 -8 -9 27 -11 37 -1 47 2 51 16 2 10 19 25 36 34 18 9 28 16 22
16 -5 0 -16 -3 -24 -8z"/>
<path d="M1315 1070 c11 -7 30 -24 41 -37 17 -20 28 -24 48 -19 21 5 24 10 17
29 -7 17 -17 22 -47 23 -22 1 -48 4 -59 8 l-20 8 20 -12z"/>
<path d="M1700 1047 c0 -2 18 -16 40 -31 23 -15 40 -34 40 -45 0 -44 62 -52
75 -10 10 30 -13 52 -49 46 -19 -3 -40 2 -56 13 -36 24 -50 32 -50 27z"/>
<path d="M1181 1018 c-1 -3 7 -26 18 -50 13 -32 16 -50 9 -62 -13 -23 8 -48
36 -44 30 4 35 48 6 55 -14 4 -30 24 -45 57 -13 28 -24 48 -24 44z"/>
<path d="M1047 962 c-10 -24 -24 -42 -37 -45 -32 -8 -24 -52 10 -52 22 0 25 4
26 41 1 23 7 51 14 64 6 12 10 24 7 26 -2 3 -12 -13 -20 -34z"/>
<path d="M614 955 c-4 -9 -2 -21 4 -27 16 -16 47 -5 47 17 0 26 -42 34 -51 10z"/>
<path d="M1594 955 c-8 -19 3 -35 26 -35 19 0 34 25 24 41 -8 14 -44 10 -50
-6z"/>
<path d="M728 833 c7 -3 16 -2 19 1 4 3 -2 6 -13 5 -11 0 -14 -3 -6 -6z"/>
<path d="M1555 825 c28 -7 59 -13 70 -13 11 0 -2 6 -30 13 -27 7 -59 13 -70
13 -11 0 3 -6 30 -13z"/>
<path d="M495 817 c-13 -10 -16 -21 -11 -40 8 -33 48 -37 69 -6 8 11 28 24 43
30 l29 9 -30 -4 c-17 -3 -39 2 -49 10 -24 17 -28 17 -51 1z"/>
<path d="M650 820 c-20 -6 -21 -8 -5 -8 11 0 31 4 45 8 20 6 21 8 5 8 -11 0
-31 -4 -45 -8z"/>
<path d="M1712 817 c-7 -8 -22 -13 -35 -12 -12 1 -14 0 -5 -2 9 -2 24 -15 33
-29 19 -29 52 -29 69 -1 22 35 -35 76 -62 44z"/>
<path d="M811 744 c0 -11 3 -14 6 -6 3 7 2 16 -1 19 -3 4 -6 -2 -5 -13z"/>
<path d="M1441 744 c0 -11 3 -14 6 -6 3 7 2 16 -1 19 -3 4 -6 -2 -5 -13z"/>
<path d="M802 700 c0 -14 2 -19 5 -12 2 6 2 18 0 25 -3 6 -5 1 -5 -13z"/>
<path d="M1452 705 c0 -11 4 -31 8 -45 6 -20 8 -21 8 -5 0 11 -4 31 -8 45 -6
20 -8 21 -8 5z"/>
<path d="M1312 699 c4 -9 1 -22 -5 -28 -15 -15 15 -46 37 -38 17 7 23 47 7 47
-5 0 -18 8 -27 18 -15 15 -17 15 -12 1z"/>
<path d="M912 681 c-20 -12 -10 -46 13 -46 14 0 20 7 20 24 0 27 -13 35 -33
22z"/>
<path d="M792 650 c0 -14 2 -19 5 -12 2 6 2 18 0 25 -3 6 -5 1 -5 -13z"/>
<path d="M1471 614 c0 -11 3 -14 6 -6 3 7 2 16 -1 19 -3 4 -6 -2 -5 -13z"/>
<path d="M781 604 c0 -12 -12 -26 -26 -32 -42 -20 -27 -72 22 -72 26 0 42 42
25 63 -6 6 -12 23 -15 37 -3 20 -5 21 -6 4z"/>
<path d="M1466 571 c-30 -33 -13 -71 31 -71 23 0 42 38 28 59 -15 25 -42 31
-59 12z"/>
</g>
</svg>
